# Blender 4.4.0
# www.blender.org
mtllib Muro.mtl
o Muro
v -1.000000 0.000000 -0.103628
v -1.000000 3.000000 -0.103628
v -1.000000 0.000000 0.093628
v -1.000000 3.000000 0.093628
v 1.000000 0.000000 -0.103628
v 1.000000 3.000000 -0.103628
v 1.000000 0.000000 0.093628
v 1.000000 3.000000 0.093628
v -1.000000 0.100000 -0.103628
v -1.000000 0.100000 0.093628
v 1.000000 0.100000 0.093628
v 1.000000 0.100000 -0.103628
v -1.000000 0.100000 0.103628
v -1.000000 0.000000 0.103628
v 1.000000 0.000000 0.103628
v 1.000000 0.100000 0.103628
vn -1.0000 -0.0000 -0.0000
vn -0.0000 -0.0000 1.0000
vn 1.0000 -0.0000 -0.0000
vn -0.0000 -0.0000 -1.0000
vn -0.0000 -1.0000 -0.0000
vn -0.0000 1.0000 -0.0000
vt 0.573826 0.945906
vt 0.570604 0.945906
vt 0.570604 0.993278
vt 0.573826 0.993278
vt 0.555880 0.945906
vt 0.588550 0.945906
vt 0.588550 0.993278
vt 0.555880 0.993278
vt 0.453021 0.239789
vt 0.456534 0.243360
vt 0.492748 0.207739
vt 0.489235 0.204167
vt 0.588550 0.967981
vt 0.588550 0.971203
vt 0.555880 0.971203
vt 0.555880 0.967981
vt 0.490012 0.204957
vt 0.453798 0.240579
vt 0.455579 0.242389
vt 0.491793 0.206768
vt 0.470210 0.224436
vt 0.473781 0.220922
vt 0.475562 0.222733
vt 0.471991 0.226246
vt 0.489057 0.203986
vt 0.452843 0.239608
vt 0.470029 0.224614
vt 0.471810 0.226424
s 0
usemtl LowPolymaterial
f 9/1/1 10/2/1 4/3/1 2/4/1
f 10/5/2 11/6/2 8/7/2 4/8/2
f 11/2/3 12/1/3 6/4/3 8/3/3
f 12/6/4 9/5/4 2/8/4 6/7/4
f 3/9/5 1/10/5 5/11/5 7/12/5
f 8/13/6 6/14/6 2/15/6 4/16/6
f 5/17/4 1/18/4 9/19/4 12/20/4
f 7/21/3 5/22/3 12/23/3 11/24/3
f 7/12/5 15/25/5 14/26/5 3/9/5
f 1/22/1 3/21/1 10/24/1 9/23/1
f 14/18/2 15/17/2 16/20/2 13/19/2
f 10/9/6 13/26/6 16/25/6 11/12/6
f 3/21/1 14/27/1 13/28/1 10/24/1
f 11/24/3 16/28/3 15/27/3 7/21/3
