# Blender 4.4.0
# www.blender.org
mtllib Pavimento2x2.mtl
o Pavimento2x2
v -1.967886 -0.000401 0.098628
v -1.032044 -0.000401 0.098628
v -1.000000 -0.000401 1.066454
v -1.000000 -0.000401 0.128251
v -1.000000 -0.000401 0.098628
v -2.031975 -0.000401 0.098628
v -2.967817 -0.000401 0.098628
v -2.999861 -0.000401 1.066454
v -2.999861 -0.000401 0.128251
v -2.999861 -0.000401 0.098628
v -1.967886 -0.000401 2.098530
v -1.032044 -0.000401 2.098530
v -1.000000 -0.000401 1.130704
v -1.000000 -0.000401 2.068906
v -1.000000 -0.000401 2.098530
v -2.031975 -0.000401 2.098530
v -2.967817 -0.000401 2.098530
v -2.999861 -0.000401 1.130704
v -2.999861 -0.000401 2.068906
v -2.999861 -0.000401 2.098530
v -1.965886 0.019678 1.064454
v -1.969581 0.018617 1.068150
v -1.034044 0.019678 1.064454
v -1.030349 0.018617 1.068150
v -1.969581 0.018586 0.126596
v -1.965886 0.019678 0.130251
v -1.034044 0.019678 0.130251
v -1.030349 0.018586 0.126596
v -1.998236 0.000661 1.066454
v -2.001625 0.000661 1.066454
v -2.001625 0.000661 0.128251
v -1.998236 0.000661 0.128251
v -1.967886 0.000659 1.100275
v -1.967886 0.000659 1.096883
v -1.032044 0.000659 1.096883
v -1.032044 0.000659 1.100275
v -1.997931 -0.000401 1.100579
v -2.001930 -0.000401 1.100579
v -2.001930 -0.000401 1.096579
v -1.997931 -0.000401 1.096579
v -1.000000 -0.000401 1.100579
v -1.000000 -0.000401 1.096579
v -1.997931 -0.000401 0.098628
v -2.001930 -0.000401 0.098628
v -2.030280 0.018617 1.068150
v -2.033975 0.019678 1.064454
v -2.969512 0.018617 1.068150
v -2.965817 0.019678 1.064454
v -2.033975 0.019678 0.130251
v -2.030280 0.018586 0.126596
v -2.969512 0.018586 0.126596
v -2.965817 0.019678 0.130251
v -2.031975 0.000659 1.096883
v -2.031975 0.000659 1.100275
v -2.967817 0.000659 1.100275
v -2.967817 0.000659 1.096883
v -2.999861 -0.000401 1.096579
v -2.999861 -0.000401 1.100579
v -1.969581 0.018617 1.129008
v -1.965886 0.019678 1.132704
v -1.030349 0.018617 1.129008
v -1.034044 0.019678 1.132704
v -1.965886 0.019678 2.066906
v -1.969581 0.018586 2.070562
v -1.030349 0.018586 2.070562
v -1.034044 0.019678 2.066906
v -2.001625 0.000661 1.130704
v -1.998236 0.000661 1.130704
v -1.998236 0.000661 2.068906
v -2.001625 0.000661 2.068906
v -2.001930 -0.000401 2.098530
v -1.997931 -0.000401 2.098530
v -2.033975 0.019678 1.132704
v -2.030280 0.018617 1.129008
v -2.965817 0.019678 1.132704
v -2.969512 0.018617 1.129008
v -2.030280 0.018586 2.070562
v -2.033975 0.019678 2.066906
v -2.965817 0.019678 2.066906
v -2.969512 0.018586 2.070562
vn -0.0000 -0.8480 -0.5300
vn 0.3031 -0.9037 -0.3023
vn -0.5307 -0.8476 -0.0000
vn 0.2847 -0.9022 0.3240
vn -0.3018 -0.9094 -0.2862
vn -0.0000 -1.0000 -0.0000
vn -0.0000 -0.8273 0.5617
vn -0.2845 -0.9080 0.3077
vn -0.3031 -0.9037 -0.3023
vn 0.5307 -0.8476 -0.0000
vn 0.2845 -0.9080 0.3077
vn 0.3018 -0.9094 -0.2862
vn -0.2847 -0.9022 0.3240
vn -0.0000 -0.8480 0.5300
vn 0.3031 -0.9037 0.3023
vn 0.2847 -0.9022 -0.3240
vn -0.0000 -0.8273 -0.5617
vn -0.3018 -0.9094 0.2862
vn -0.3031 -0.9037 0.3023
vn -0.2845 -0.9080 -0.3077
vn -0.2847 -0.9022 -0.3240
vn 0.3018 -0.9094 0.2862
vn 0.2845 -0.9080 -0.3077
vn 0.2797 -0.9601 -0.0000
vn -0.0000 -0.9612 -0.2759
vn -0.2797 -0.9601 -0.0000
vn -0.0000 -0.9582 0.2862
vn 0.0353 -0.9994 -0.0000
vn -0.0000 -0.9994 -0.0352
vn -0.0331 -0.9995 -0.0000
vn -0.0000 -0.9994 0.0358
vn -0.0353 -0.9994 -0.0000
vn 0.0331 -0.9995 -0.0000
vn -0.0000 -0.9612 0.2759
vn -0.0000 -0.9582 -0.2862
vn -0.0000 -0.9994 0.0352
vn -0.0000 -0.9994 -0.0358
vt 1.001811 0.000000
vt 1.000000 0.000000
vt 0.000000 0.000000
vt -0.001811 0.000000
vt 1.000000 1.001765
vt 1.000000 1.000000
vt 1.000000 -0.001808
vt 0.000000 1.000000
vt 0.000000 0.062413
vt 0.000000 0.992896
vt 0.992932 0.000000
vt 0.062256 0.000000
vt 0.002137 0.002132
vt 0.002137 0.997868
vt 0.997863 0.997868
vt 0.997863 0.002132
vt -0.001811 1.000000
vt 1.001811 1.000000
vt 1.000000 1.000000
vt 0.000000 -0.001808
vt 0.000000 1.001765
vt 1.000000 1.001765
vt 0.062256 0.000000
vt 0.992932 0.000000
vt 0.000000 0.999999
vt 0.000000 0.992897
vt 0.000000 0.062415
vt -0.001811 1.000000
vt 0.997863 0.002132
vt 0.000000 0.062413
vt -0.001811 1.000000
vt 1.001811 1.000000
vt 0.062258 0.000000
vt 0.000000 -0.001808
vt 0.000000 0.062415
vt 0.000000 0.992897
vt 0.062258 0.000000
vt -0.001811 1.000000
vt 1.001811 1.000000
s 0
usemtl Flooring
f 24/1/1 35/2/1 34/3/1 22/4/1
f 40/3/2 29/3/2 22/3/2 34/3/2
f 28/5/3 4/6/3 3/2/3 24/7/3
f 32/8/4 43/9/4 1/8/4 25/10/4
f 35/2/5 24/11/5 3/2/5 42/12/5
f 21/13/6 26/14/6 27/15/6 23/16/6
f 25/17/7 1/8/7 2/6/7 28/18/7
f 28/19/8 2/6/8 5/6/8 4/6/8
f 45/20/3 50/21/3 31/8/3 30/3/3
f 47/1/1 45/4/1 53/3/1 56/2/1
f 39/3/9 53/3/9 45/3/9 30/3/9
f 51/22/10 47/7/10 8/2/10 9/6/10
f 51/6/11 9/6/11 10/6/11 7/6/11
f 56/2/12 57/23/12 8/2/12 47/24/12
f 31/25/13 50/26/13 6/8/13 44/27/13
f 50/28/7 51/18/7 7/6/7 6/8/7
f 61/1/14 59/4/14 33/3/14 36/2/14
f 76/1/14 55/2/14 54/3/14 74/4/14
f 65/22/3 61/7/3 13/2/3 14/6/3
f 60/13/6 62/29/6 66/15/6 63/14/6
f 37/3/15 33/3/15 59/3/15 68/3/15
f 69/8/16 64/10/16 11/8/16 72/30/16
f 64/31/17 65/32/17 12/6/17 11/8/17
f 36/2/18 41/33/18 13/2/18 61/11/18
f 38/3/19 67/3/19 74/3/19 54/3/19
f 65/19/20 14/6/20 15/6/20 12/6/20
f 74/34/3 67/3/3 70/8/3 77/21/3
f 80/22/10 19/6/10 18/2/10 76/7/10
f 70/8/21 71/35/21 16/8/21 77/36/21
f 55/2/22 76/24/22 18/2/22 58/37/22
f 80/6/23 17/6/23 20/6/23 19/6/23
f 77/38/17 16/8/17 17/6/17 80/39/17
f 46/13/6 48/16/6 52/15/6 49/14/6
f 59/20/10 64/21/10 69/8/10 68/3/10
f 73/13/6 78/14/6 79/15/6 75/29/6
f 37/3/6 38/3/6 39/3/6 40/3/6
f 26/14/24 21/13/24 22/20/24 25/21/24
f 21/13/25 23/16/25 24/1/25 22/4/25
f 23/16/26 27/15/26 28/5/26 24/7/26
f 27/15/27 26/14/27 25/17/27 28/18/27
f 32/8/6 29/3/6 30/3/6 31/8/6
f 34/3/6 35/2/6 36/2/6 33/3/6
f 33/3/28 37/3/28 40/3/28 34/3/28
f 29/3/29 40/3/29 39/3/29 30/3/29
f 35/2/30 42/12/30 41/33/30 36/2/30
f 31/25/31 44/27/31 43/9/31 32/8/31
f 50/21/26 45/20/26 46/13/26 49/14/26
f 45/4/25 47/1/25 48/16/25 46/13/25
f 47/7/24 51/22/24 52/15/24 48/16/24
f 51/18/27 50/28/27 49/14/27 52/15/27
f 54/3/6 55/2/6 56/2/6 53/3/6
f 53/3/32 39/3/32 38/3/32 54/3/32
f 55/2/33 58/37/33 57/23/33 56/2/33
f 64/21/24 59/20/24 60/13/24 63/14/24
f 59/4/34 61/1/34 62/29/34 60/13/34
f 61/7/26 65/22/26 66/15/26 62/29/26
f 65/32/35 64/31/35 63/14/35 66/15/35
f 70/8/6 67/3/6 68/3/6 69/8/6
f 67/3/36 38/3/36 37/3/36 68/3/36
f 69/8/37 72/30/37 71/35/37 70/8/37
f 78/14/26 73/13/26 74/34/26 77/21/26
f 73/13/34 75/29/34 76/1/34 74/4/34
f 75/29/24 79/15/24 80/22/24 76/7/24
f 79/15/35 78/14/35 77/38/35 80/39/35
f 22/20/10 29/3/10 32/8/10 25/21/10
