# Blender 4.4.0
# www.blender.org
mtllib Porta.mtl
o porta
v -0.519923 0.101653 0.031824
v -0.519923 0.101653 -0.033196
v -0.519923 1.259723 -0.033196
v -0.519923 1.333046 -0.033196
v -0.519923 1.259723 0.031824
v -0.519923 1.333046 0.031824
v -0.447198 1.259723 0.031824
v -0.447198 1.333046 0.031824
v -0.447198 0.101653 0.031824
v -0.447198 0.101653 -0.033196
v -0.447198 1.259723 -0.033196
v -0.447198 1.333046 -0.033196
v 0.603494 2.500000 0.027921
v 0.607338 2.496120 0.027921
v 0.603494 2.496120 0.031824
v 0.603494 2.500000 -0.029293
v 0.603494 2.496120 -0.033196
v 0.607338 2.496120 -0.029293
v -0.612338 2.496120 -0.029293
v -0.608494 2.496120 -0.033196
v -0.608494 2.500000 -0.029293
v -0.612338 2.496120 0.027921
v -0.608494 2.500000 0.027921
v -0.608494 2.496120 0.031824
v -0.612338 0.009802 0.027921
v -0.608494 0.009802 0.031824
v -0.608494 0.005922 0.027921
v -0.608494 0.005922 -0.029293
v -0.608494 0.009802 -0.033196
v -0.612338 0.009802 -0.029293
v 0.603494 0.005922 0.027921
v 0.603494 0.009802 0.031824
v 0.607338 0.009802 0.027921
v 0.603494 0.005922 -0.029293
v 0.607338 0.009802 -0.029293
v 0.603494 0.009802 -0.033196
v 0.607338 0.101653 0.027921
v 0.603494 0.101653 0.031824
v 0.603494 0.101653 -0.033196
v 0.607338 0.101653 -0.029293
v -0.608494 0.101653 -0.033196
v -0.612338 0.101653 -0.029293
v -0.612338 0.101653 0.027921
v -0.608494 0.101653 0.031824
v -0.608494 1.259723 -0.033196
v -0.612338 1.259723 -0.029293
v -0.612338 1.333046 -0.029293
v -0.608494 1.333046 -0.033196
v -0.612338 1.259723 0.027921
v -0.608494 1.259723 0.031824
v -0.608494 1.333046 0.031824
v -0.612338 1.333046 0.027921
v 0.603494 1.333046 -0.033196
v 0.607338 1.333046 -0.029293
v 0.607338 1.259723 -0.029293
v 0.603494 1.259723 -0.033196
v 0.607338 1.333046 0.027921
v 0.603494 1.333046 0.031824
v 0.603494 1.259723 0.031824
v 0.607338 1.259723 0.027921
v -0.519923 0.009802 0.031824
v -0.519923 0.005922 0.027921
v -0.519923 2.500000 0.027921
v -0.519923 2.496120 0.031824
v -0.519923 2.496120 -0.033196
v -0.519923 2.500000 -0.029293
v -0.519923 0.005922 -0.029293
v -0.519923 0.009802 -0.033196
v -0.447198 0.009802 0.031824
v -0.447198 0.005922 0.027921
v -0.447198 2.500000 0.027921
v -0.447198 2.496120 0.031824
v -0.447198 2.496120 -0.033196
v -0.447198 2.500000 -0.029293
v -0.447198 0.005922 -0.029293
v -0.447198 0.009802 -0.033196
v -0.506393 1.277259 0.035727
v -0.502549 1.273379 0.035727
v -0.510238 1.269499 0.031824
v -0.506393 1.315510 0.035727
v -0.510238 1.323270 0.031824
v -0.502549 1.319390 0.035727
v -0.464572 1.319390 0.035727
v -0.456884 1.323270 0.031824
v -0.460728 1.315510 0.035727
v -0.464572 1.273379 0.035727
v -0.460728 1.277259 0.035727
v -0.456884 1.269499 0.031824
v -0.502549 1.273379 -0.037099
v -0.506393 1.277259 -0.037099
v -0.510238 1.269499 -0.033196
v -0.464572 1.273379 -0.037099
v -0.456884 1.269499 -0.033196
v -0.460728 1.277259 -0.037099
v -0.460728 1.315510 -0.037099
v -0.456884 1.323270 -0.033196
v -0.464572 1.319390 -0.037099
v -0.506393 1.315510 -0.037099
v -0.502549 1.319390 -0.037099
v -0.510238 1.323270 -0.033196
v -0.506393 1.315510 0.042859
v -0.502549 1.319390 0.042859
v -0.502549 1.315510 0.046762
v -0.502549 1.277259 0.046762
v -0.502549 1.273379 0.042859
v -0.506393 1.277259 0.042859
v -0.464572 1.277259 0.046762
v -0.460728 1.277259 0.042859
v -0.464572 1.273379 0.042859
v -0.464572 1.319390 0.042859
v -0.460728 1.315510 0.042859
v -0.464572 1.315510 0.046762
v -0.464572 1.273379 -0.044231
v -0.460728 1.277259 -0.044231
v -0.464572 1.277259 -0.048134
v -0.502549 1.277259 -0.048134
v -0.506393 1.277259 -0.044231
v -0.502549 1.273379 -0.044231
v -0.502549 1.315510 -0.048134
v -0.502549 1.319390 -0.044231
v -0.506393 1.315510 -0.044231
v -0.460728 1.315510 -0.044231
v -0.464572 1.319390 -0.044231
v -0.464572 1.315510 -0.048134
v -0.498705 1.285019 0.050665
v -0.494861 1.281139 0.050665
v -0.502549 1.277259 0.046762
v -0.498705 1.307751 0.050665
v -0.502549 1.315510 0.046762
v -0.494861 1.311630 0.050665
v -0.472261 1.311630 0.050665
v -0.464572 1.315510 0.046762
v -0.468416 1.307751 0.050665
v -0.472261 1.281139 0.050665
v -0.468416 1.285019 0.050665
v -0.464572 1.277259 0.046762
v -0.494861 1.281139 -0.052037
v -0.498705 1.285019 -0.052037
v -0.502549 1.277259 -0.048134
v -0.472261 1.281139 -0.052037
v -0.464572 1.277259 -0.048134
v -0.468416 1.285019 -0.052037
v -0.468416 1.307751 -0.052037
v -0.464572 1.315510 -0.048134
v -0.472261 1.311630 -0.052037
v -0.498705 1.307751 -0.052037
v -0.494861 1.311630 -0.052037
v -0.502549 1.315510 -0.048134
v -0.501723 1.309741 0.062909
v -0.498705 1.307751 0.056589
v -0.494861 1.311630 0.056589
v -0.496838 1.314673 0.062913
v -0.501723 1.283028 0.062909
v -0.496838 1.278096 0.062913
v -0.494861 1.281139 0.056589
v -0.498705 1.285019 0.056589
v -0.470284 1.278096 0.062913
v -0.465399 1.283028 0.062909
v -0.468416 1.285019 0.056589
v -0.472261 1.281139 0.056589
v -0.470284 1.314673 0.062913
v -0.472261 1.311630 0.056589
v -0.468416 1.307751 0.056589
v -0.465399 1.309741 0.062909
v -0.470284 1.278096 -0.064285
v -0.472261 1.281139 -0.057960
v -0.468416 1.285019 -0.057960
v -0.465399 1.283028 -0.064281
v -0.496838 1.278096 -0.064285
v -0.501723 1.283028 -0.064281
v -0.498705 1.285019 -0.057960
v -0.494861 1.281139 -0.057960
v -0.501723 1.309741 -0.064281
v -0.496838 1.314673 -0.064285
v -0.494861 1.311630 -0.057960
v -0.498705 1.307751 -0.057960
v -0.465399 1.309741 -0.064281
v -0.468416 1.307751 -0.057960
v -0.472261 1.311630 -0.057960
v -0.470284 1.314673 -0.064285
v -0.507568 1.316017 0.083763
v -0.503072 1.320555 0.083760
v -0.501389 1.314323 0.086863
v -0.507568 1.276752 0.083763
v -0.501389 1.278447 0.086863
v -0.503072 1.272214 0.083760
v -0.464050 1.272214 0.083760
v -0.465732 1.278447 0.086863
v -0.459553 1.276752 0.083763
v -0.464050 1.320555 0.083760
v -0.459553 1.316017 0.083763
v -0.465732 1.314323 0.086863
v -0.464050 1.272214 -0.085132
v -0.459553 1.276752 -0.085135
v -0.465732 1.278447 -0.088235
v -0.503072 1.272214 -0.085132
v -0.501389 1.278447 -0.088235
v -0.507568 1.276752 -0.085135
v -0.507568 1.316017 -0.085135
v -0.501389 1.314323 -0.088235
v -0.503072 1.320555 -0.085132
v -0.459553 1.316017 -0.085135
v -0.464050 1.320555 -0.085132
v -0.465732 1.314323 -0.088235
v -0.454292 1.321313 -0.078150
v -0.454975 1.320234 -0.072632
v -0.459870 1.325157 -0.072628
v -0.458794 1.325847 -0.078153
v -0.459870 1.267612 -0.072628
v -0.454975 1.272535 -0.072632
v -0.454292 1.271457 -0.078150
v -0.458794 1.266922 -0.078153
v -0.507251 1.267612 -0.072628
v -0.508328 1.266922 -0.078153
v -0.512829 1.271457 -0.078150
v -0.512146 1.272535 -0.072632
v -0.508328 1.325847 -0.078153
v -0.507251 1.325157 -0.072628
v -0.512146 1.320234 -0.072632
v -0.512829 1.321313 -0.078150
v -0.458794 1.325847 0.076781
v -0.459870 1.325157 0.071256
v -0.454975 1.320234 0.071260
v -0.454292 1.321313 0.076778
v -0.507251 1.325157 0.071256
v -0.508328 1.325847 0.076781
v -0.512829 1.321313 0.076778
v -0.512146 1.320234 0.071260
v -0.512146 1.272535 0.071260
v -0.512829 1.271457 0.076778
v -0.508328 1.266922 0.076781
v -0.507251 1.267612 0.071256
v -0.454292 1.271457 0.076778
v -0.454975 1.272535 0.071260
v -0.459870 1.267612 0.071256
v -0.458794 1.266922 0.076781
vn -0.0000 -0.0000 -1.0000
vn -0.0000 -0.0000 1.0000
vn -0.0000 1.0000 -0.0000
vn -1.0000 -0.0000 -0.0000
vn 1.0000 -0.0000 -0.0000
vn -0.0000 -1.0000 -0.0000
vn 0.6252 -0.0000 0.7804
vn 0.7988 -0.0000 0.6016
vn -0.0000 0.7969 0.6042
vn -0.0000 -0.7969 -0.6042
vn -0.7988 -0.0000 0.6016
vn -0.0000 0.7969 -0.6042
vn -0.0000 -0.7969 0.6042
vn -0.7988 -0.0000 -0.6016
vn -0.0000 -0.6227 -0.7825
vn 0.7988 -0.0000 -0.6016
vn 0.6252 -0.0000 -0.7804
vn -0.6252 -0.0000 -0.7804
vn -0.6252 -0.0000 0.7804
vn -0.0000 0.6227 -0.7825
vn -0.0000 -0.6227 0.7825
vn -0.0000 0.6227 0.7825
vn -0.5821 -0.5767 -0.5733
vn -0.5821 -0.5767 0.5733
vn 0.5821 -0.5767 0.5733
vn 0.5821 -0.5767 -0.5733
vn 0.5821 0.5767 -0.5733
vn 0.5821 0.5767 0.5733
vn -0.5821 0.5767 -0.5733
vn -0.5821 0.5767 0.5733
vn 0.3055 0.3027 -0.9028
vn 0.3055 -0.3027 -0.9028
vn -0.3055 -0.3027 -0.9028
vn -0.3055 0.3027 -0.9028
vn 0.3055 0.3027 0.9028
vn -0.3055 0.3027 0.9028
vn -0.3055 -0.3027 0.9028
vn 0.3055 -0.3027 0.9028
vn -0.5820 0.5767 -0.5733
vn -0.5820 0.5767 0.5733
vn 0.6196 -0.6140 0.4891
vn 0.6196 0.6140 0.4891
vn -0.6196 0.6140 0.4891
vn -0.6196 -0.6139 0.4891
vn -0.6196 0.6140 -0.4891
vn 0.6196 0.6140 -0.4891
vn 0.6196 -0.6140 -0.4891
vn -0.6196 -0.6139 -0.4891
vn 0.3448 -0.3421 -0.8741
vn 0.3448 0.3421 -0.8741
vn -0.3448 0.3422 -0.8741
vn -0.3448 -0.3422 -0.8741
vn -0.3448 0.3422 0.8741
vn 0.3448 0.3422 0.8741
vn 0.3448 -0.3421 0.8741
vn -0.3448 -0.3422 0.8741
vn -0.6920 -0.6875 -0.2203
vn -0.6920 0.6875 -0.2203
vn 0.6920 0.6875 -0.2203
vn 0.6920 -0.6875 -0.2203
vn -0.6920 -0.6875 0.2204
vn 0.6920 -0.6875 0.2203
vn 0.6920 0.6875 0.2203
vn -0.6920 0.6875 0.2203
vn 0.7104 0.7038 -0.0000
vn -0.7104 0.7038 -0.0000
vn -0.0000 0.7092 -0.7050
vn 0.7125 -0.0000 0.7017
vn 0.7125 -0.0000 -0.7017
vn -0.7125 -0.0000 0.7017
vn -0.7125 -0.0000 -0.7017
vn -0.0000 -0.7092 -0.7050
vn -0.0000 -0.7092 0.7050
vn -0.0000 0.7092 0.7050
vn -0.7104 -0.7038 -0.0000
vn 0.7104 -0.7038 -0.0000
vn 0.9024 -0.0000 0.4309
vn -0.0000 0.9011 0.4336
vn -0.0000 -0.9011 0.4336
vn -0.9024 -0.0000 0.4309
vn -0.0000 0.9011 -0.4336
vn 0.9024 -0.0000 -0.4309
vn -0.9024 -0.0000 -0.4309
vn -0.0000 -0.9011 -0.4336
vn 0.4485 -0.0000 -0.8938
vn -0.0000 0.4457 -0.8952
vn -0.0000 -0.4457 -0.8952
vn -0.4485 -0.0000 -0.8938
vn -0.0000 0.4457 0.8952
vn 0.4485 -0.0000 0.8938
vn -0.4485 -0.0000 0.8938
vn -0.0000 -0.4457 0.8952
vn -0.4851 -0.4811 0.7302
vn -0.3490 0.3463 -0.8708
vn 0.3490 0.3463 -0.8708
vn -0.4851 -0.4811 -0.7302
vn 0.3490 -0.3463 0.8708
vn 0.3490 0.3463 0.8708
vn 0.4851 -0.4811 0.7302
vn -0.4851 0.4811 -0.7302
vn -0.3490 -0.3463 -0.8708
vn -0.4851 0.4811 0.7302
vn 0.4851 0.4811 0.7302
vn 0.3490 -0.3463 -0.8708
vn 0.9924 -0.0000 -0.1228
vn -0.0000 -0.9923 -0.1239
vn -0.9924 -0.0000 -0.1228
vn -0.0000 0.9923 -0.1239
vn -0.3490 -0.3463 0.8708
vn 0.4851 -0.4811 -0.7302
vn 0.4851 0.4811 -0.7302
vn -0.3490 0.3463 0.8708
vn -0.0000 0.9923 0.1239
vn -0.9924 -0.0000 0.1228
vn 0.9924 -0.0000 0.1228
vn -0.0000 -0.9923 0.1239
vt 0.460648 0.546296
vt 0.499869 0.527839
vt 0.460648 0.546296
vt 0.409722 0.750000
vt 0.323103 0.776652
vt 0.323103 0.776652
vt 0.423561 0.708485
vt 0.323103 0.776652
vt 0.350232 0.721847
vt 0.268674 0.636637
vt 0.381944 0.583333
vt 0.409621 0.583333
vt 0.322930 0.610057
vt 0.469907 0.731481
vt 0.474520 0.699192
vt 0.499913 0.694564
vt 0.499900 0.722253
vt 0.460648 0.546296
vt 0.499869 0.527839
vt 0.499894 0.555491
vt 0.469874 0.564747
vt 0.267224 0.647226
vt 0.320940 0.617912
vt 0.345423 0.715725
vt 0.316110 0.769441
vt 0.324644 0.616782
vt 0.410556 0.590837
vt 0.422777 0.700830
vt 0.348777 0.714863
vt 0.469907 0.731481
vt 0.499900 0.722253
vt 0.499900 0.722253
vt 0.469352 0.720365
vt 0.499891 0.710590
vt 0.499878 0.539502
vt 0.461204 0.557413
vt 0.408055 0.739995
vt 0.438703 0.730180
vt 0.422408 0.575375
vt 0.383612 0.593338
vt 0.421296 0.564815
vt 0.469874 0.564747
vt 0.439747 0.574040
vt 0.409621 0.583333
vt 0.439815 0.740741
vt 0.449040 0.703839
vt 0.423560 0.708485
vt 0.449040 0.703839
vt 0.448518 0.695922
vt 0.440371 0.581855
vt 0.470185 0.572874
vt 0.474259 0.691015
vt 0.500000 0.710550
vt 0.500000 0.539450
vt 0.500000 0.539450
vt 0.430707 0.560386
vt 0.451237 0.550725
vt 0.451237 0.550725
vt 0.430707 0.560386
vt 0.271755 0.645227
vt 0.320022 0.768062
vt 0.316110 0.769440
vt 0.268674 0.636637
vt 0.499905 0.563919
vt 0.499911 0.686127
vt 0.430707 0.560386
vt 0.451237 0.550725
vt 0.430707 0.560386
vt 0.500000 0.710550
vt 0.428625 0.561366
vt 0.428625 0.561366
vt 0.453319 0.549745
vt 0.453319 0.549745
vt 0.453319 0.549745
vt 0.445419 0.739016
vt 0.445419 0.739016
vt 0.455402 0.548765
vt 0.426543 0.562346
vt 0.462711 0.733696
vt 0.447012 0.738526
vt 0.447012 0.738526
vt 0.462711 0.733696
vt 0.465895 0.732716
vt 0.465895 0.732716
vt 0.464303 0.733206
vt 0.443827 0.739506
vt 0.443827 0.739506
vt 0.434629 0.558541
vt 0.447316 0.552570
vt 0.447767 0.552358
vt 0.434177 0.558753
vt 0.447072 0.552685
vt 0.434872 0.558426
vt 0.434872 0.558426
vt 0.426543 0.562346
vt 0.462711 0.733696
vt 0.455402 0.548765
vt 0.430707 0.560386
vt 0.462711 0.733696
vt 0.434872 0.558426
vt 0.434872 0.558426
vt 0.460166 0.734479
vt 0.449557 0.737743
vt 0.449676 0.737707
vt 0.460047 0.734515
vt 0.448604 0.738036
vt 0.448604 0.738036
vt 0.448604 0.738036
vt 0.448604 0.738036
vt 0.432790 0.559406
vt 0.432790 0.559406
vt 0.432790 0.559406
vt 0.432790 0.559406
vt 0.450196 0.737546
vt 0.459526 0.734676
vt 0.450196 0.737546
vt 0.448604 0.738036
vt 0.449155 0.551705
vt 0.449155 0.551705
vt 0.449155 0.551705
vt 0.449155 0.551705
vt 0.461118 0.734186
vt 0.459526 0.734676
vt 0.450196 0.737546
vt 0.450196 0.737546
vt 0.459526 0.734676
vt 0.449155 0.551705
vt 0.449155 0.551705
vt 0.449557 0.737743
vt 0.460166 0.734479
vt 0.460047 0.734516
vt 0.449676 0.737707
vt 0.432790 0.559406
vt 0.432790 0.559406
vt 0.434245 0.558721
vt 0.447700 0.552390
vt 0.447700 0.552390
vt 0.434245 0.558721
vt 0.461118 0.734186
vt 0.461118 0.734186
vt 0.461118 0.734186
vt 0.449717 0.737694
vt 0.449717 0.737694
vt 0.460006 0.734528
vt 0.447909 0.552291
vt 0.434036 0.558820
vt 0.434191 0.558747
vt 0.447753 0.552364
vt 0.461118 0.734186
vt 0.434036 0.558820
vt 0.447909 0.552291
vt 0.434191 0.558747
vt 0.459712 0.734618
vt 0.450010 0.737604
vt 0.449665 0.737710
vt 0.460057 0.734512
vt 0.450010 0.737604
vt 0.459712 0.734619
vt 0.460057 0.734512
vt 0.449665 0.737710
vt 0.447316 0.552570
vt 0.434629 0.558541
vt 0.434177 0.558753
vt 0.447767 0.552358
vt 0.448604 0.738036
vt 0.449155 0.551705
vt 0.432790 0.559406
vt 0.500000 0.563852
vt 0.500000 0.686148
s 0
usemtl Wall_material
f 51/1/1 24/2/1 64/2/1 6/3/1
f 2/4/2 41/4/2 29/5/2 68/6/2
f 39/7/2 10/4/2 76/8/2 36/9/2
f 69/10/1 9/11/1 38/12/1 32/13/1
f 12/14/2 53/15/2 17/16/2 73/17/2
f 8/18/1 72/19/1 15/20/1 58/21/1
f 70/22/3 31/23/3 34/24/3 75/25/3
f 33/26/4 37/27/4 40/28/4 35/29/4
f 48/30/2 4/14/2 65/31/2 20/32/2
f 47/33/5 19/34/5 22/35/5 52/36/5
f 42/37/5 46/38/5 49/39/5 43/40/5
f 7/41/1 8/18/1 58/42/1 59/43/1
f 9/11/1 7/41/1 59/43/1 38/44/1
f 11/45/2 56/46/2 53/15/2 12/14/2
f 10/4/2 39/47/2 56/48/2 11/45/2
f 62/22/3 70/22/3 75/25/3 67/25/3
f 41/4/2 2/4/2 3/45/2 45/45/2
f 50/41/1 51/1/1 6/3/1 5/41/1
f 55/49/4 60/50/4 57/51/4 54/52/4
f 45/45/2 3/45/2 4/14/2 48/14/2
f 46/38/5 47/33/5 52/36/5 49/39/5
f 44/11/1 50/41/1 5/41/1 1/11/1
f 4/14/2 12/14/2 73/17/2 65/31/2
f 66/53/6 63/54/6 23/55/6 21/53/6
f 42/37/5 43/40/5 25/60/5 30/61/5
f 27/22/3 62/22/3 67/25/3 28/62/3
f 26/63/1 44/11/1 1/11/1 61/63/1
f 40/28/4 37/27/4 60/50/4 55/49/4
f 54/52/4 57/51/4 14/64/4 18/65/4
f 1/11/1 5/41/1 7/41/1 9/11/1
f 2/4/2 10/4/2 11/45/2 3/45/2
f 10/4/2 2/4/2 68/8/2 76/6/2
f 6/3/1 64/2/1 72/19/1 8/18/1
f 74/69/6 71/55/6 63/54/6 66/53/6
f 61/10/1 1/11/1 9/11/1 69/63/1
f 5/41/1 6/3/1 81/77/1 79/78/1
f 12/14/2 4/14/2 100/83/2 96/84/2
f 3/45/2 11/45/2 93/86/2 91/87/2
f 7/41/1 5/41/1 79/78/1 88/95/1
f 8/18/1 7/41/1 88/95/1 84/97/1
f 6/3/1 8/18/1 84/97/1 81/77/1
f 11/45/2 12/14/2 96/84/2 93/87/2
f 4/14/2 3/45/2 91/87/2 100/83/2
f 13/168/23 14/64/23 15/20/23
f 16/169/24 17/16/24 18/65/24
f 19/34/25 20/32/25 21/53/25
f 22/35/26 23/55/26 24/2/26
f 25/60/27 26/63/27 27/22/27
f 28/62/28 29/5/28 30/61/28
f 31/23/29 32/13/29 33/26/29
f 34/24/30 35/29/30 36/9/30
f 27/22/65 28/62/65 30/61/65 25/60/65
f 34/24/66 31/23/66 33/26/66 35/29/66
f 62/22/67 27/22/67 26/63/67 61/63/67
f 48/30/68 20/32/68 19/34/68 47/33/68
f 52/36/69 22/35/69 24/2/69 51/1/69
f 56/48/70 39/47/70 40/28/70 55/49/70
f 60/50/71 37/27/71 38/44/71 59/43/71
f 64/2/72 24/2/72 23/55/72 63/54/72
f 66/53/73 21/53/73 20/32/73 65/31/73
f 39/7/70 36/9/70 35/29/70 40/28/70
f 37/27/71 33/26/71 32/13/71 38/12/71
f 29/5/68 41/4/68 42/37/68 30/61/68
f 25/60/69 43/40/69 44/11/69 26/63/69
f 68/6/74 29/5/74 28/62/74 67/25/74
f 13/168/75 16/169/75 18/65/75 14/64/75
f 22/35/76 19/34/76 21/53/76 23/55/76
f 41/4/68 45/45/68 46/38/68 42/37/68
f 45/45/68 48/14/68 47/33/68 46/38/68
f 43/40/69 49/39/69 50/41/69 44/11/69
f 49/39/69 52/36/69 51/1/69 50/41/69
f 17/16/70 53/15/70 54/52/70 18/65/70
f 53/15/70 56/46/70 55/49/70 54/52/70
f 14/64/71 57/51/71 58/21/71 15/20/71
f 57/51/71 60/50/71 59/43/71 58/42/71
f 70/22/67 62/22/67 61/10/67 69/63/67
f 72/19/72 64/2/72 63/54/72 71/55/72
f 74/69/73 66/53/73 65/31/73 73/17/73
f 76/6/74 68/8/74 67/25/74 75/25/74
f 31/23/67 70/22/67 69/10/67 32/13/67
f 15/20/72 72/19/72 71/55/72 13/168/72
f 16/169/73 74/69/73 73/17/73 17/16/73
f 36/9/74 76/8/74 75/25/74 34/24/74
f 81/77/72 84/97/72 83/73/72 82/72/72
f 84/97/71 88/95/71 87/56/71 85/67/71
f 93/87/70 96/84/70 95/79/70 94/81/70
f 96/84/73 100/83/73 99/85/73 97/85/73
f 16/169/6 13/168/6 71/55/6 74/69/6
usemtl Metal_Material
f 77/56/5 80/57/5 101/58/5 106/59/5
f 104/66/3 103/58/3 129/58/3 127/66/3
f 85/67/4 87/56/4 108/68/4 111/67/4
f 86/70/3 78/71/3 105/70/3 109/70/3
f 82/72/6 83/73/6 110/74/6 102/72/6
f 89/75/3 92/76/3 113/76/3 118/75/3
f 98/79/5 90/80/5 117/81/5 121/82/5
f 97/85/6 99/85/6 120/85/6 123/85/6
f 153/88/7 149/89/7 228/90/7 229/91/7
f 133/92/4 135/93/4 159/94/4 163/92/4
f 94/81/4 95/79/4 122/96/4 114/81/4
f 103/58/3 112/67/3 132/67/3 129/58/3
f 107/98/3 104/66/3 127/66/3 136/98/3
f 116/81/3 115/81/3 141/81/3 139/81/3
f 112/67/3 107/98/3 136/98/3 132/67/3
f 115/81/3 124/99/3 144/99/3 141/81/3
f 119/96/3 116/81/3 139/81/3 148/96/3
f 125/100/5 128/92/5 150/92/5 156/101/5
f 124/99/3 119/96/3 148/96/3 144/99/3
f 220/102/8 215/103/8 198/104/8 199/105/8
f 214/106/9 212/107/9 193/108/9 196/109/9
f 134/110/3 126/111/3 155/112/3 160/113/3
f 142/114/4 143/115/4 178/115/4 167/116/4
f 137/107/3 140/117/3 166/108/3 172/108/3
f 130/118/6 131/119/6 162/120/6 151/121/6
f 145/122/6 147/122/6 175/122/6 179/122/6
f 146/123/5 138/124/5 171/125/5 176/126/5
f 226/120/10 221/120/10 190/127/10 182/128/10
f 211/129/11 205/130/11 202/131/11 194/132/11
f 236/113/12 231/111/12 186/133/12 187/134/12
f 185/135/1 183/136/1 192/137/1 188/138/1
f 208/122/13 217/139/13 201/140/13 203/141/13
f 197/142/2 195/143/2 204/144/2 200/144/2
f 224/145/14 233/146/14 189/147/14 191/148/14
f 180/149/15 174/122/15 218/141/15 207/122/15
f 230/150/16 227/151/16 181/148/16 184/152/16
f 173/153/17 170/154/17 216/155/17 219/156/17
f 168/157/18 177/158/18 206/159/18 210/160/18
f 164/161/19 158/162/19 234/163/19 223/164/19
f 169/165/20 165/108/20 209/165/20 213/108/20
f 152/166/21 161/128/21 222/128/21 225/121/21
f 157/113/22 154/113/22 232/133/22 235/167/22
f 77/56/31 78/71/31 79/78/31
f 80/57/32 81/77/32 82/72/32
f 83/73/33 84/97/33 85/67/33
f 86/70/34 87/56/34 88/95/34
f 89/75/35 90/80/35 91/87/35
f 92/76/36 93/87/36 94/81/36
f 95/79/37 96/84/37 97/85/37
f 98/79/38 99/85/38 100/83/38
f 101/58/26 102/72/26 103/58/26
f 104/66/27 105/70/27 106/59/27
f 107/98/39 108/68/39 109/70/39
f 110/74/23 111/67/23 112/67/23
f 113/76/40 114/81/40 115/81/40
f 116/81/28 117/81/28 118/75/28
f 119/96/25 120/85/25 121/82/25
f 122/96/24 123/85/24 124/99/24
f 125/100/31 126/111/31 127/66/31
f 128/92/32 129/58/32 130/118/32
f 131/119/33 132/67/33 133/92/33
f 134/110/34 135/93/34 136/98/34
f 137/107/35 138/124/35 139/81/35
f 140/117/36 141/81/36 142/114/36
f 143/115/37 144/99/37 145/122/37
f 146/123/38 147/122/38 148/96/38
f 149/89/41 150/92/41 151/121/41 152/166/41
f 153/88/42 154/113/42 155/112/42 156/101/42
f 157/113/43 158/162/43 159/94/43 160/113/43
f 161/128/44 162/120/44 163/92/44 164/161/44
f 165/108/45 166/108/45 167/116/45 168/157/45
f 169/165/46 170/154/46 171/125/46 172/108/46
f 173/153/47 174/122/47 175/122/47 176/126/47
f 177/158/48 178/115/48 179/122/48 180/149/48
f 181/148/49 182/128/49 183/136/49
f 184/152/50 185/135/50 186/133/50
f 187/134/51 188/138/51 189/147/51
f 190/127/52 191/148/52 192/137/52
f 193/108/53 194/132/53 195/143/53
f 196/109/54 197/142/54 198/104/54
f 199/105/55 200/144/55 201/140/55
f 202/131/56 203/141/56 204/144/56
f 205/130/57 206/159/57 207/122/57 208/122/57
f 209/165/58 210/160/58 211/129/58 212/107/58
f 213/108/59 214/106/59 215/103/59 216/155/59
f 217/139/60 218/141/60 219/156/60 220/102/60
f 221/120/61 222/128/61 223/164/61 224/145/61
f 225/121/62 226/120/62 227/151/62 228/90/62
f 229/91/63 230/150/63 231/111/63 232/133/63
f 233/146/64 234/163/64 235/167/64 236/113/64
f 80/57/69 77/56/69 79/78/69 81/77/69
f 78/71/67 86/70/67 88/95/67 79/78/67
f 92/76/74 89/75/74 91/87/74 93/86/74
f 90/80/68 98/79/68 100/83/68 91/87/68
f 103/58/69 104/66/69 106/59/69 101/58/69
f 104/66/67 107/98/67 109/70/67 105/70/67
f 102/72/72 110/74/72 112/67/72 103/58/72
f 111/67/71 108/68/71 107/98/71 112/67/71
f 115/81/74 116/81/74 118/75/74 113/76/74
f 116/81/68 119/96/68 121/82/68 117/81/68
f 114/81/70 122/96/70 124/99/70 115/81/70
f 123/85/73 120/85/73 119/96/73 124/99/73
f 85/67/75 111/67/75 110/74/75 83/73/75
f 101/58/76 80/57/76 82/72/76 102/72/76
f 98/79/76 121/82/76 120/85/76 99/85/76
f 122/96/75 95/79/75 97/85/75 123/85/75
f 105/70/65 78/71/65 77/56/65 106/59/65
f 89/75/65 118/75/65 117/81/65 90/80/65
f 86/70/66 109/70/66 108/68/66 87/56/66
f 113/76/66 92/76/66 94/81/66 114/81/66
f 128/92/69 125/100/69 127/66/69 129/58/69
f 126/111/67 134/110/67 136/98/67 127/66/67
f 129/58/72 132/67/72 131/119/72 130/118/72
f 132/67/71 136/98/71 135/93/71 133/92/71
f 140/117/74 137/107/74 139/81/74 141/81/74
f 138/124/68 146/123/68 148/96/68 139/81/68
f 141/81/70 144/99/70 143/115/70 142/114/70
f 144/99/73 148/96/73 147/122/73 145/122/73
f 149/89/77 153/88/77 156/101/77 150/92/77
f 154/113/78 157/113/78 160/113/78 155/112/78
f 151/121/79 162/120/79 161/128/79 152/166/79
f 163/92/80 159/94/80 158/162/80 164/161/80
f 165/108/81 169/165/81 172/108/81 166/108/81
f 170/154/82 173/153/82 176/126/82 171/125/82
f 167/116/83 178/115/83 177/158/83 168/157/83
f 179/122/84 175/122/84 174/122/84 180/149/84
f 133/92/75 163/92/75 162/120/75 131/119/75
f 150/92/76 128/92/76 130/118/76 151/121/76
f 146/123/76 176/126/76 175/122/76 147/122/76
f 178/115/75 143/115/75 145/122/75 179/122/75
f 155/112/65 126/111/65 125/100/65 156/101/65
f 137/107/65 172/108/65 171/125/65 138/124/65
f 134/110/66 160/113/66 159/94/66 135/93/66
f 166/108/66 140/117/66 142/114/66 167/116/66
f 183/136/85 185/135/85 184/152/85 181/148/85
f 185/135/86 188/138/86 187/134/86 186/133/86
f 182/128/87 190/127/87 192/137/87 183/136/87
f 191/148/88 189/147/88 188/138/88 192/137/88
f 195/143/89 197/142/89 196/109/89 193/108/89
f 197/142/90 200/144/90 199/105/90 198/104/90
f 194/132/91 202/131/91 204/144/91 195/143/91
f 203/141/92 201/140/92 200/144/92 204/144/92
f 208/122/93 203/141/93 202/131/93 205/130/93
f 209/165/94 165/108/94 168/157/94 210/160/94
f 216/155/95 170/154/95 169/165/95 213/108/95
f 224/145/96 191/148/96 190/127/96 221/120/96
f 228/90/97 149/89/97 152/166/97 225/121/97
f 232/133/98 154/113/98 153/88/98 229/91/98
f 220/102/99 199/105/99 201/140/99 217/139/99
f 236/113/100 187/134/100 189/147/100 233/146/100
f 180/149/101 207/122/101 206/159/101 177/158/101
f 193/108/102 212/107/102 211/129/102 194/132/102
f 198/104/103 215/103/103 214/106/103 196/109/103
f 173/153/104 219/156/104 218/141/104 174/122/104
f 215/103/105 220/102/105 219/156/105 216/155/105
f 217/139/106 208/122/106 207/122/106 218/141/106
f 205/130/107 211/129/107 210/160/107 206/159/107
f 212/107/108 214/106/108 213/108/108 209/165/108
f 164/161/109 223/164/109 222/128/109 161/128/109
f 181/148/110 227/151/110 226/120/110 182/128/110
f 186/133/111 231/111/111 230/150/111 184/152/111
f 157/113/112 235/167/112 234/163/112 158/162/112
f 231/111/113 236/113/113 235/167/113 232/133/113
f 233/146/114 224/145/114 223/164/114 234/163/114
f 227/151/115 230/150/115 229/91/115 228/90/115
f 221/120/116 226/120/116 225/121/116 222/128/116
