# Blender 4.4.0
# www.blender.org
mtllib Tetto.mtl
o Tetto
v -2.999931 5.000000 2.098579
v -2.999931 5.100000 2.098579
v -2.999931 3.000000 0.098579
v -2.999931 3.100000 0.098579
v -0.999931 5.000000 2.098579
v -0.999931 5.100000 2.098579
v -0.999931 3.000000 0.098579
v -0.999931 3.100000 0.098579
v -2.999931 3.285714 0.384293
v -2.999931 3.571429 0.670007
v -2.999931 3.857143 0.955722
v -2.999931 4.142857 1.241436
v -2.999931 4.428572 1.527150
v -2.999931 4.714286 1.812865
v -2.999931 4.814286 1.812865
v -2.999931 4.528571 1.527150
v -2.999931 4.242857 1.241436
v -2.999931 3.957143 0.955722
v -2.999931 3.671428 0.670007
v -2.999931 3.385714 0.384293
v -0.999931 4.714286 1.812865
v -0.999931 4.428571 1.527150
v -0.999931 4.142857 1.241436
v -0.999931 3.857143 0.955722
v -0.999931 3.571429 0.670007
v -0.999931 3.285714 0.384293
v -0.999931 3.385714 0.384293
v -0.999931 3.671429 0.670007
v -0.999931 3.957143 0.955722
v -0.999931 4.242857 1.241436
v -0.999931 4.528572 1.527150
v -0.999931 4.814286 1.812865
v -2.999931 4.914286 1.812865
v -2.999931 4.628572 1.527150
v -2.999931 4.342857 1.241436
v -2.999931 4.057143 0.955722
v -2.999931 3.771429 0.670007
v -2.999931 3.485714 0.384293
v -0.999931 3.485714 0.384293
v -0.999931 3.771429 0.670007
v -0.999931 4.057143 0.955722
v -0.999931 4.342857 1.241436
v -0.999931 4.628572 1.527150
v -0.999931 4.914286 1.812865
v -2.999931 3.200000 0.098579
v -0.999931 3.200000 0.098579
vn -1.0000 -0.0000 -0.0000
vn -0.0000 -0.0000 -1.0000
vn 1.0000 -0.0000 -0.0000
vn -0.0000 -0.0000 1.0000
vn -0.0000 -0.7071 0.7071
vn -0.0000 0.8384 -0.5450
vt 0.375000 0.214286
vt 0.625000 0.214286
vt 0.625000 0.250000
vt 0.375000 0.250000
vt 0.625000 0.500000
vt 0.375000 0.500000
vt 0.375000 0.714286
vt 0.625000 0.714286
vt 0.625000 0.750000
vt 0.375000 0.750000
vt 0.625000 1.000000
vt 0.375000 1.000000
vt 0.125000 0.714286
vt 0.125000 0.750000
vt 0.125000 0.500000
vt 0.375000 0.535714
vt 0.125000 0.535714
vt 0.375000 0.571429
vt 0.125000 0.571429
vt 0.375000 0.607143
vt 0.125000 0.607143
vt 0.375000 0.642857
vt 0.125000 0.642857
vt 0.375000 0.678571
vt 0.125000 0.678571
vt 0.625000 0.535714
vt 0.625000 0.571429
vt 0.625000 0.607143
vt 0.625000 0.642857
vt 0.625000 0.678571
vt 0.375000 0.000000
vt 0.625000 0.000000
vt 0.625000 0.035714
vt 0.375000 0.035714
vt 0.625000 0.071429
vt 0.375000 0.071429
vt 0.625000 0.107143
vt 0.375000 0.107143
vt 0.625000 0.142857
vt 0.375000 0.142857
vt 0.625000 0.178571
vt 0.375000 0.178571
vt 0.875000 0.714286
vt 0.875000 0.642857
vt 0.875000 0.571429
vt 0.875000 0.678571
vt 0.875000 0.607143
vt 0.875000 0.535714
s 1
usemtl Wood_Material
f 9/1/1 20/2/1 4/3/1 3/4/1
f 3/4/2 4/3/2 8/5/2 7/6/2
f 21/7/3 32/8/3 6/9/3 5/10/3
f 5/10/4 6/9/4 2/11/4 1/12/4
f 14/13/5 21/7/5 5/10/5 1/14/5
f 3/15/5 7/6/5 26/16/5 9/17/5
f 9/17/5 26/16/5 25/18/5 10/19/5
f 10/19/5 25/18/5 24/20/5 11/21/5
f 11/21/5 24/20/5 23/22/5 12/23/5
f 12/23/5 23/22/5 22/24/5 13/25/5
f 13/25/5 22/24/5 21/7/5 14/13/5
f 7/6/3 8/5/3 27/26/3 26/16/3
f 26/16/3 27/26/3 28/27/3 25/18/3
f 25/18/3 28/27/3 29/28/3 24/20/3
f 24/20/3 29/28/3 30/29/3 23/22/3
f 23/22/3 30/29/3 31/30/3 22/24/3
f 22/24/3 31/30/3 32/8/3 21/7/3
f 1/31/1 2/32/1 15/33/1 14/34/1
f 14/34/1 15/33/1 16/35/1 13/36/1
f 13/36/1 16/35/1 17/37/1 12/38/1
f 12/38/1 17/37/1 18/39/1 11/40/1
f 11/40/1 18/39/1 19/41/1 10/42/1
f 10/42/1 19/41/1 20/2/1 9/1/1
f 32/8/2 15/43/2 33/43/2 44/8/2
f 30/29/2 17/44/2 35/44/2 42/29/2
f 28/27/2 19/45/2 37/45/2 40/27/2
f 31/30/2 16/46/2 34/46/2 43/30/2
f 29/28/2 18/47/2 36/47/2 41/28/2
f 27/26/2 20/48/2 38/48/2 39/26/2
f 4/3/2 45/3/2 46/5/2 8/5/2
f 6/9/6 44/8/6 33/43/6 2/11/6
f 15/43/1 2/11/1 33/43/1
f 32/8/3 44/8/3 6/9/3
f 32/8/6 43/30/6 34/46/6 15/43/6
f 31/30/3 43/30/3 32/8/3
f 16/46/1 15/43/1 34/46/1
f 31/30/6 42/29/6 35/44/6 16/46/6
f 17/44/1 16/46/1 35/44/1
f 30/29/3 42/29/3 31/30/3
f 30/29/6 41/28/6 36/47/6 17/44/6
f 29/28/3 41/28/3 30/29/3
f 18/47/1 17/44/1 36/47/1
f 29/28/6 40/27/6 37/45/6 18/47/6
f 28/27/3 40/27/3 29/28/3
f 19/45/1 18/47/1 37/45/1
f 28/27/6 39/26/6 38/48/6 19/45/6
f 20/48/1 19/45/1 38/48/1
f 27/26/3 39/26/3 28/27/3
f 27/26/6 46/5/6 45/3/6 20/48/6
f 27/26/3 8/5/3 46/5/3
f 4/3/1 20/48/1 45/3/1
