# Blender 4.4.0
# www.blender.org
mtllib VetroFinestra.mtl
o Vetro_Finestra
v -0.512874 1.229825 0.015449
v -0.512874 1.229825 -0.015449
v -0.512874 0.000000 -0.015449
v -0.512874 0.000000 0.015449
v 0.512874 0.000000 -0.015449
v 0.512874 0.000000 0.015449
v 0.512874 1.229825 -0.015449
v 0.512874 1.229825 0.015449
vn -0.0000 -0.0000 -1.0000
vn -0.0000 1.0000 -0.0000
vn 1.0000 -0.0000 -0.0000
vn -0.0000 -0.0000 1.0000
vn -0.0000 -1.0000 -0.0000
vn -1.0000 -0.0000 -0.0000
vt 0.605523 0.735229
vt 0.636054 0.735229
vt 0.636054 0.698623
vt 0.605523 0.698623
vt 0.636054 0.716466
vt 0.605523 0.716466
vt 0.605523 0.717386
vt 0.636054 0.717386
vt 0.620329 0.698623
vt 0.620329 0.735229
vt 0.621248 0.735229
vt 0.621248 0.698623
s 1
usemtl Tapparella_Material
f 2/1/1 7/2/1 5/3/1 3/4/1
f 7/5/2 2/6/2 1/7/2 8/8/2
f 5/9/3 7/10/3 8/11/3 6/12/3
f 1/1/4 4/4/4 6/3/4 8/2/4
f 3/6/5 5/5/5 6/8/5 4/7/5
f 2/10/6 3/9/6 4/12/6 1/11/6
